<svg width="26" height="26" viewBox="0 0 26 26" fill="none" xmlns="http://www.w3.org/2000/svg">
<g opacity="0.5" clip-path="url(#clip0)">
<path d="M21.6536 13.6403C21.0496 12.8592 20.1381 12.3227 18.9192 12.0311C20.4714 11.2393 21.1535 9.89554 20.9663 7.99947C20.9036 7.31192 20.7136 6.71604 20.3958 6.21095C20.0777 5.70576 19.6485 5.29962 19.1064 4.99237C18.5648 4.68474 17.9758 4.45056 17.3407 4.28911C16.7054 4.12766 15.976 4.01044 15.1531 3.93759V0H12.747V3.82819C12.3303 3.82819 11.695 3.83859 10.8409 3.85944V0H8.43446V3.93759C8.0906 3.94805 7.58546 3.95335 6.91881 3.95335L3.60632 3.93759V6.50019H5.34061C6.13231 6.50019 6.59586 6.85445 6.73126 7.56269V12.0472C6.83557 12.0472 6.91881 12.0526 6.98136 12.063H6.73126V18.3441C6.64801 18.8752 6.34597 19.1411 5.82506 19.1411H4.09089L3.60643 22.0006H6.73153C6.92948 22.0006 7.21577 22.0032 7.59093 22.0079C7.96587 22.0132 8.24701 22.0158 8.43457 22.0158V26.0002H10.8414V22.0626C11.2787 22.0733 11.9141 22.0784 12.7475 22.0784V26.0002H15.1536V22.0158C16.008 21.9742 16.7657 21.8965 17.4269 21.7815C18.0884 21.6665 18.7214 21.4871 19.3254 21.2421C19.9294 20.9975 20.4346 20.6926 20.8408 20.328C21.2472 19.9637 21.5828 19.5 21.8489 18.9374C22.1141 18.3748 22.2836 17.7237 22.3563 16.9839C22.4923 15.5364 22.2578 14.4217 21.6536 13.6403ZM10.8877 6.6716C10.9606 6.6716 11.1663 6.66897 11.5049 6.66372C11.8436 6.65836 12.1247 6.65321 12.3487 6.64796C12.5727 6.64281 12.8748 6.65584 13.2551 6.68709C13.6353 6.71834 13.9556 6.7601 14.216 6.81209C14.4763 6.86408 14.763 6.95006 15.0752 7.06986C15.388 7.18955 15.6379 7.33545 15.8251 7.5073C16.0128 7.67915 16.1716 7.89801 16.3016 8.16366C16.432 8.42926 16.4971 8.73393 16.4971 9.07762C16.4971 9.36932 16.4503 9.63503 16.3567 9.87474C16.2632 10.1143 16.1222 10.3149 15.9349 10.4763C15.7476 10.6378 15.5545 10.7786 15.3565 10.8983C15.1588 11.018 14.906 11.1144 14.5988 11.1872C14.2916 11.2602 14.0234 11.3175 13.7944 11.3591C13.5652 11.4008 13.2788 11.4295 12.935 11.4451C12.5911 11.4606 12.3306 11.4712 12.1536 11.4764C11.9765 11.4815 11.7344 11.4815 11.4269 11.4764C11.1195 11.4712 10.94 11.4685 10.8878 11.4685V6.67155H10.8877V6.6716ZM17.4583 17.3123C17.3591 17.552 17.2317 17.7604 17.0756 17.9376C16.9192 18.1144 16.7133 18.2708 16.4582 18.4061C16.2032 18.5417 15.9555 18.6509 15.7162 18.7342C15.4765 18.8179 15.1873 18.8904 14.8491 18.9531C14.5101 19.0157 14.2134 19.0597 13.9579 19.0859C13.7028 19.112 13.3983 19.1327 13.0439 19.1485C12.6899 19.1638 12.4137 19.1718 12.2159 19.1718C12.0179 19.1718 11.7678 19.1689 11.4657 19.1638C11.1635 19.159 10.9709 19.1563 10.8875 19.1563V13.8748C10.9708 13.8748 11.2182 13.8697 11.6298 13.8591C12.0414 13.8486 12.3771 13.8437 12.6376 13.8437C12.898 13.8437 13.2575 13.8591 13.716 13.8905C14.1741 13.9216 14.5595 13.9683 14.8723 14.0308C15.1847 14.0934 15.5256 14.1896 15.8957 14.3199C16.2654 14.4501 16.565 14.6089 16.7943 14.7964C17.0235 14.9842 17.2161 15.2234 17.3722 15.5152C17.5288 15.8068 17.6069 16.1402 17.6069 16.5153C17.6069 16.8073 17.5574 17.0725 17.4583 17.3123Z" fill="#00B2FF"/>
</g>
<defs>
<clipPath id="clip0">
<rect width="26" height="26" fill="white" transform="matrix(-1 0 0 1 26 0)"/>
</clipPath>
</defs>
</svg>
