<svg width="31" viewBox="0 0 31 31" fill="none" xmlns="http://www.w3.org/2000/svg">
  <g opacity=".5" clip-path="url(#clip0)" fill="#00B2FF">
    <path d="M9.007 17.702c.87 0 1.713-.056 2.51-.16V8.806a19.32 19.32 0 0 0-2.51-.16C4.032 8.646 0 10.474 0 12.73v.886c0 2.256 4.032 4.085 9.007 4.085zm0 4.561c.87 0 1.713-.057 2.51-.161v-2.56c-.797.104-1.639.161-2.51.161-4.342 0-7.966-1.393-8.818-3.248-.124.27-.189.55-.189.837v.886c0 2.256 4.032 4.085 9.007 4.085zm2.51 2.039v-.2c-.797.105-1.639.162-2.51.162-4.342 0-7.966-1.393-8.818-3.248-.124.27-.189.55-.189.837v.885c0 2.257 4.032 4.085 9.007 4.085.995 0 1.951-.073 2.846-.208a3.222 3.222 0 0 1-.336-1.428v-.886zM21.993 1.728c-4.974 0-9.006 1.828-9.006 4.085v.886c0 2.256 4.032 4.085 9.006 4.085 4.975 0 9.007-1.83 9.007-4.086v-.885c0-2.257-4.032-4.085-9.007-4.085z"/>
    <path d="M21.993 12.785c-4.342 0-7.966-1.394-8.817-3.248-.124.27-.19.55-.19.836v.886c0 2.256 4.033 4.085 9.007 4.085 4.975 0 9.007-1.829 9.007-4.085v-.886c0-.287-.065-.566-.19-.836-.85 1.854-4.475 3.248-8.817 3.248z"/>
    <path d="M21.993 17.346c-4.342 0-7.966-1.394-8.817-3.249-.124.27-.19.55-.19.837v.886c0 2.256 4.033 4.085 9.007 4.085 4.975 0 9.007-1.829 9.007-4.085v-.886a1.98 1.98 0 0 0-.19-.837c-.85 1.855-4.475 3.249-8.817 3.249z"/>
    <path d="M21.993 22.153c-4.342 0-7.966-1.394-8.817-3.249-.124.27-.19.55-.19.837v.886c0 2.256 4.033 4.085 9.007 4.085 4.975 0 9.007-1.829 9.007-4.085v-.886a1.99 1.99 0 0 0-.19-.837c-.85 1.855-4.475 3.249-8.817 3.249z"/>
    <path d="M21.993 26.713c-4.342 0-7.966-1.393-8.817-3.248-.124.27-.19.55-.19.837v.885c0 2.257 4.033 4.085 9.007 4.085 4.975 0 9.007-1.828 9.007-4.085v-.886c0-.286-.065-.566-.19-.836-.85 1.855-4.475 3.248-8.817 3.248z"/>
  </g>
  <defs>
    <clipPath id="clip0">
      <path fill="#fff" d="M0 0h31v31H0z"/>
    </clipPath>
  </defs>
</svg>