<svg width="30" height="30" viewBox="0 0 30 30" fill="none" xmlns="http://www.w3.org/2000/svg">
<g opacity="0.5" clip-path="url(#clip0)">
<path d="M10.7876 9.20684C10.6714 9.00483 10.6714 8.75875 10.7876 8.55743L14.4371 2.2351C14.6689 1.83309 15.3301 1.83309 15.5618 2.2351L19.2119 8.55743C19.3281 8.7587 19.3281 9.00483 19.2119 9.20684C19.0957 9.40812 18.8814 9.53155 18.6495 9.53155H11.35C11.1181 9.53155 10.9039 9.40812 10.7876 9.20684ZM6.23219 18.3955H23.768C24.0005 18.3955 24.2148 18.2721 24.3304 18.0708C24.4466 17.8696 24.4466 17.6227 24.3304 17.4214L21.1459 11.9057C21.0297 11.7044 20.8154 11.581 20.5835 11.581H9.41808C9.18626 11.581 8.97126 11.7044 8.85567 11.9057L5.67047 17.4214C5.55424 17.6227 5.55424 17.8696 5.67047 18.0708C5.78547 18.2714 5.99978 18.3955 6.23219 18.3955ZM29.9132 27.092L26.2631 20.7702C26.1468 20.5689 25.9326 20.4455 25.7006 20.4455H4.29968C4.06787 20.4455 3.85287 20.5689 3.73728 20.7702L0.0871693 27.092C-0.0290565 27.2932 -0.0290565 27.5401 0.0871693 27.7414C0.203395 27.9426 0.41766 28.0661 0.649573 28.0661H29.3507C29.5825 28.0661 29.7975 27.9426 29.9132 27.7414C30.0286 27.5401 30.0294 27.2927 29.9132 27.092Z" fill="#00B2FF"/>
</g>
<defs>
<clipPath id="clip0">
<rect width="30" height="30" fill="white"/>
</clipPath>
</defs>
</svg>
