<svg width="27" height="27" viewBox="0 0 27 27" fill="none" xmlns="http://www.w3.org/2000/svg">
<g opacity="0.5" clip-path="url(#clip0)">
<path d="M22.7446 12.0904C22.6308 12.1631 22.5117 12.235 22.386 12.3025C22.3667 12.3131 22.3465 12.3228 22.3272 12.3334C22.2144 12.3932 22.0967 12.4515 21.9757 12.5083C21.9404 12.5248 21.9053 12.5417 21.8695 12.5565C21.7292 12.6201 21.5846 12.6825 21.4356 12.7416L21.3749 12.7644C21.2383 12.8174 21.0976 12.8685 20.9535 12.9177L20.8315 12.9596C20.6686 13.0137 20.5022 13.0662 20.331 13.1164L20.2708 13.1331C20.114 13.178 19.9534 13.2209 19.7886 13.2628L19.6532 13.2967C19.472 13.3414 19.2876 13.385 19.0995 13.425L19.0447 13.4365C18.8707 13.473 18.6932 13.5079 18.5143 13.5411L18.3697 13.5681C18.1739 13.6027 17.9763 13.6362 17.7753 13.6644L17.727 13.6713C17.5389 13.6993 17.3494 13.7254 17.158 13.7499L16.9998 13.7697C16.7945 13.7946 16.5876 13.8177 16.3795 13.8386L16.3465 13.8415C16.1471 13.8608 15.9465 13.878 15.7448 13.893L15.5823 13.905C15.3707 13.9196 15.1595 13.933 14.9469 13.9436H14.9239C14.7167 13.9533 14.51 13.9608 14.3033 13.9662L14.1427 13.9702C13.9283 13.9745 13.7145 13.978 13.501 13.978C13.2874 13.978 13.0739 13.9745 12.8592 13.9702L12.6987 13.9662C12.492 13.9606 12.2853 13.9531 12.0781 13.9436H12.055C11.8424 13.933 11.6313 13.9196 11.4196 13.905L11.2572 13.893C11.0557 13.8777 10.8551 13.8605 10.6554 13.8415L10.6227 13.8386C10.4144 13.8177 10.2074 13.7946 10.0021 13.7697L9.84394 13.7499C9.65301 13.7252 9.46327 13.6988 9.27493 13.6713L9.2269 13.6644C9.02585 13.6336 8.8281 13.6004 8.63223 13.5681L8.48768 13.5411C8.30829 13.5079 8.13078 13.473 7.95728 13.4365L7.90242 13.425C7.71432 13.385 7.53022 13.3414 7.34895 13.2967L7.21334 13.2628C7.05043 13.2209 6.88987 13.178 6.7312 13.1331L6.67093 13.1164C6.49978 13.0681 6.33357 13.0137 6.17043 12.9596L6.04848 12.9177C5.90393 12.8694 5.76362 12.8174 5.62708 12.7644L5.56634 12.7416C5.4159 12.6825 5.27135 12.6201 5.13245 12.5565C5.09667 12.5405 5.06159 12.5238 5.02628 12.5083C4.90527 12.4515 4.78521 12.3932 4.6748 12.3334C4.65549 12.3228 4.63525 12.3131 4.61618 12.3025C4.49023 12.234 4.3711 12.1631 4.25739 12.0904C4.22844 12.072 4.20042 12.0527 4.17241 12.0344C4.07612 11.9703 3.9836 11.9042 3.89673 11.8371C3.88425 11.8274 3.86966 11.8185 3.85718 11.8088V17.3572C3.85718 18.7232 7.98105 20.2501 13.5 20.2501C19.019 20.2501 23.1429 18.7232 23.1429 17.3572V11.8088C23.1304 11.8185 23.1158 11.8274 23.1033 11.8371C23.0165 11.9042 22.9244 11.9703 22.8277 12.0344C22.8015 12.0537 22.7735 12.072 22.7446 12.0904Z" fill="#00B2FF"/>
<path d="M13.5019 26.9999C19.0211 26.9999 23.1448 25.473 23.1448 24.107V19.0408C23.1323 19.0504 23.1179 19.0594 23.1052 19.069C23.0186 19.1361 22.9263 19.2023 22.8295 19.2663C22.8015 19.2847 22.7735 19.304 22.7446 19.3223C22.6309 19.3951 22.5117 19.4669 22.386 19.5345C22.3667 19.545 22.3465 19.5547 22.3272 19.5653C22.2144 19.6251 22.0967 19.6835 21.9757 19.7402C21.9404 19.7567 21.9053 19.7736 21.8695 19.7885C21.7292 19.852 21.5846 19.9144 21.4356 19.9735L21.3749 19.9963C21.2383 20.0493 21.0976 20.1004 20.9535 20.1496L20.8315 20.1915C20.6686 20.2457 20.5022 20.2982 20.331 20.3483L20.2708 20.365C20.114 20.41 19.9534 20.4528 19.7886 20.4947L19.6532 20.5286C19.472 20.5734 19.2876 20.6169 19.0995 20.6569L19.0447 20.6685C18.8707 20.705 18.6932 20.7398 18.5143 20.773L18.3697 20.8001C18.1739 20.8347 17.9763 20.8681 17.7753 20.8964L17.727 20.9032C17.5389 20.9312 17.3494 20.9573 17.158 20.9818L16.9998 21.0016C16.7945 21.0266 16.5876 21.0496 16.3795 21.0706L16.3465 21.0734C16.1471 21.0927 15.9465 21.1099 15.7448 21.125L15.5823 21.137C15.3707 21.1516 15.1595 21.165 14.9469 21.1756H14.9239C14.7167 21.1852 14.51 21.1928 14.3033 21.1982L14.1427 21.2022C13.9283 21.2064 13.7145 21.2099 13.501 21.2099C13.2874 21.2099 13.0739 21.2064 12.8592 21.2022L12.6987 21.1982C12.492 21.1925 12.2853 21.185 12.0781 21.1756H12.055C11.8424 21.165 11.6313 21.1516 11.4196 21.137L11.2572 21.125C11.0557 21.1097 10.8551 21.0925 10.6554 21.0734L10.6227 21.0706C10.4144 21.0496 10.2074 21.0266 10.0021 21.0016L9.84394 20.9818C9.65302 20.9571 9.46327 20.9307 9.27493 20.9032L9.2269 20.8964C9.02585 20.8655 8.8281 20.8323 8.63223 20.8001L8.48768 20.773C8.30829 20.7398 8.13078 20.705 7.95728 20.6685L7.90242 20.6569C7.71432 20.6169 7.53022 20.5734 7.34895 20.5286L7.21334 20.4947C7.05043 20.4528 6.88988 20.41 6.7312 20.365L6.67093 20.3483C6.49978 20.3 6.33357 20.2457 6.17043 20.1915L6.04848 20.1496C5.90393 20.1013 5.76362 20.0493 5.62708 19.9963L5.56634 19.9735C5.4159 19.9144 5.27135 19.852 5.13245 19.7885C5.09667 19.7725 5.06159 19.7557 5.02628 19.7402C4.90527 19.6835 4.78521 19.6251 4.6748 19.5653C4.65549 19.5547 4.63525 19.545 4.61618 19.5345C4.49023 19.4659 4.3711 19.3951 4.25739 19.3223C4.22844 19.304 4.20042 19.2847 4.17241 19.2663C4.07612 19.2023 3.9836 19.1361 3.89673 19.069C3.88425 19.0594 3.86966 19.0504 3.85718 19.0408V24.107C3.85906 25.473 7.98294 26.9999 13.5019 26.9999Z" fill="#00B2FF"/>
<path d="M23.1448 4.57666C23.1323 4.58631 23.1179 4.59526 23.1052 4.60491C23.0186 4.67201 22.9263 4.73816 22.8295 4.80219C22.8015 4.82056 22.7735 4.83986 22.7446 4.85822C22.6309 4.93097 22.5117 5.00277 22.386 5.07034C22.3667 5.08093 22.3465 5.09058 22.3272 5.10118C22.2144 5.16098 22.0967 5.21936 21.9757 5.2761C21.9404 5.29258 21.9053 5.30953 21.8695 5.32436C21.7292 5.38792 21.5846 5.45031 21.4356 5.5094L21.3749 5.53224C21.2383 5.58521 21.0976 5.63629 20.9535 5.68549L20.8315 5.7274C20.6686 5.78155 20.5022 5.83405 20.331 5.88419L20.2708 5.90091C20.114 5.94587 19.9534 5.98872 19.7886 6.03062L19.6532 6.06452C19.472 6.10925 19.2876 6.15281 19.0995 6.19283L19.0447 6.20436C18.8707 6.24085 18.6932 6.2757 18.5143 6.30889L18.3697 6.33596C18.1739 6.37057 17.9763 6.404 17.7753 6.43225L17.727 6.43908C17.5389 6.46709 17.3494 6.49323 17.158 6.51771L16.9998 6.53748C16.7945 6.56244 16.5876 6.58551 16.3795 6.60646L16.3465 6.60929C16.1471 6.62859 15.9465 6.64578 15.7448 6.66085L15.5823 6.67285C15.3707 6.68745 15.1595 6.70087 14.9469 6.71146H14.9239C14.7167 6.72111 14.51 6.72865 14.3033 6.73406L14.1427 6.73806C13.9283 6.7423 13.7145 6.74583 13.501 6.74583C13.2874 6.74583 13.0739 6.7423 12.8592 6.73806L12.6987 6.73406C12.492 6.72841 12.2853 6.72088 12.0781 6.71146H12.055C11.8424 6.70087 11.6313 6.68745 11.4196 6.67285L11.2572 6.66085C11.0557 6.64554 10.8551 6.62836 10.6554 6.60929L10.6227 6.60646C10.4144 6.58575 10.2074 6.56291 10.0021 6.53748L9.84394 6.51771C9.65302 6.49323 9.46327 6.46709 9.27493 6.43908L9.2269 6.43225C9.02585 6.40141 8.8281 6.36822 8.63223 6.33596L8.48768 6.30889C8.30829 6.2757 8.13078 6.24085 7.95728 6.20436L7.90242 6.19283C7.71432 6.15281 7.53022 6.10925 7.34895 6.06452L7.21334 6.03062C7.05043 5.98872 6.88988 5.94587 6.7312 5.90091L6.67093 5.88419C6.49978 5.83593 6.33357 5.78155 6.17043 5.7274L6.04848 5.68549C5.90393 5.63723 5.76362 5.58521 5.62708 5.53224L5.56634 5.5094C5.4159 5.45031 5.27135 5.38792 5.13245 5.32436C5.09667 5.30835 5.06159 5.29163 5.02628 5.2761C4.90527 5.21936 4.78521 5.16098 4.6748 5.10118C4.65549 5.09058 4.63525 5.08093 4.61618 5.07034C4.49023 5.00183 4.3711 4.93097 4.25739 4.85822C4.22844 4.83986 4.20042 4.82056 4.17241 4.80219C4.07612 4.73816 3.9836 4.67201 3.89673 4.60491C3.88425 4.59526 3.86966 4.58631 3.85718 4.57666V10.1251C3.85718 11.491 7.98105 13.0179 13.5 13.0179C19.019 13.0179 23.1429 11.491 23.1429 10.1251L23.1448 4.57666Z" fill="#00B2FF"/>
<path d="M13.502 0C7.98301 0 3.85913 1.52694 3.85913 2.89286C3.85913 4.25877 7.98301 5.78571 13.502 5.78571C19.0212 5.78571 23.1448 4.25877 23.1448 2.89286C23.1448 1.52694 19.0212 0 13.502 0ZM8.19842 4.33929C6.82379 4.33929 5.7877 3.7173 5.7877 2.89286C5.7877 2.06841 6.82379 1.44643 8.19842 1.44643C9.57304 1.44643 10.6091 2.06841 10.6091 2.89286C10.6091 3.7173 9.57304 4.33929 8.19842 4.33929Z" fill="#00B2FF"/>
<path d="M9.64481 2.89279C9.64481 2.62653 8.99717 2.41064 8.19838 2.41064C7.3996 2.41064 6.75195 2.62653 6.75195 2.89279C6.75195 3.15905 7.3996 3.37493 8.19838 3.37493C8.99717 3.37493 9.64481 3.15905 9.64481 2.89279Z" fill="#00B2FF"/>
</g>
<defs>
<clipPath id="clip0">
<rect width="27" height="27" fill="white"/>
</clipPath>
</defs>
</svg>
