<svg width="17" height="17" fill="none" xmlns="http://www.w3.org/2000/svg">
  <g clip-path="url(#clip0)">
    <path d="M14.158 8.919c-.395-.511-.99-.862-1.788-1.053 1.015-.517 1.461-1.396 1.339-2.636-.041-.45-.165-.839-.373-1.169a2.34 2.34 0 0 0-.843-.797 4.64 4.64 0 0 0-1.155-.46 9.11 9.11 0 0 0-1.43-.23V0H8.335v2.503c-.273 0-.688.007-1.247.02V0H5.515v2.575c-.225.006-.555.01-.991.01l-2.166-.01V4.25h1.134c.518 0 .82.232.91.695v2.932c.067 0 .122.004.163.01H4.4v4.107c-.054.348-.252.521-.592.521H2.675l-.317 1.87h2.043c.13 0 .317.002.562.005.245.003.43.005.552.005V17h1.574v-2.574c.285.006.7.01 1.246.01V17h1.573v-2.605a12.231 12.231 0 0 0 1.487-.153 6.043 6.043 0 0 0 1.24-.353c.396-.16.726-.36.992-.598.265-.238.485-.541.659-.909.173-.368.284-.793.332-1.277.088-.947-.065-1.675-.46-2.186zm-7.04-4.557l.404-.005c.222-.003.406-.007.552-.01.147-.004.344.005.593.025.248.02.458.048.628.082.17.034.358.09.562.169.204.078.368.173.49.286.123.112.227.255.312.429.085.173.127.373.127.597 0 .191-.03.365-.091.522a.982.982 0 0 1-.276.393 2.792 2.792 0 0 1-.378.276 1.73 1.73 0 0 1-.496.189c-.2.047-.376.085-.526.112-.15.027-.337.046-.562.056-.224.01-.395.017-.51.02-.116.004-.275.004-.476 0A39.064 39.064 0 0 0 7.12 7.5V4.362zm4.297 6.958a1.454 1.454 0 0 1-.25.409 1.42 1.42 0 0 1-.404.306c-.167.088-.329.16-.485.214a3.906 3.906 0 0 1-.567.143 7.428 7.428 0 0 1-1.18.128 13.441 13.441 0 0 1-1.032.01 32.568 32.568 0 0 0-.378-.005V9.072c.054 0 .216-.003.485-.01.27-.007.489-.01.659-.01.17 0 .405.01.705.03.3.02.552.051.756.092.204.04.427.104.67.189.241.085.437.189.587.312.15.122.276.279.378.47.102.19.153.408.153.654 0 .19-.032.364-.097.52z" fill="#fff"/>
  </g>
  <defs>
    <clipPath id="clip0">
      <path fill="#fff" d="M0 0h17v17H0z"/>
    </clipPath>
  </defs>
</svg>