<svg viewBox="0 0 35 35" fill="none" xmlns="http://www.w3.org/2000/svg">
    <path d="M35 17.5C35 27.165 27.165 35 17.5 35S0 27.165 0 17.5 7.835 0 17.5 0 35 7.835 35 17.5z" fill="#00B2FF"/>
    <path d="M25.298 8.271H9.702a2.39 2.39 0 0 0-2.388 2.388V21.4a2.39 2.39 0 0 0 2.388 2.387h.597v4.855l4.827-4.855h10.172a2.39 2.39 0 0 0 2.388-2.387V10.66a2.39 2.39 0 0 0-2.388-2.388z" fill="#fff"/>
    <path d="M14.932 15.264h1.194v1.194h-1.194v-1.194zM17.32 15.264h1.193v1.194h-1.194v-1.194zM19.706 15.264H20.9v1.194h-1.194v-1.194z" fill="#00B2FF"/>
</svg>