<svg width="16" height="16" fill="none" xmlns="http://www.w3.org/2000/svg">
  <g fill="#fff">
    <path d="M5.476 8.995h.498-.498zM10.454 8.995h.498-.498zM16 7.502a1.993 1.993 0 0 0-1.991-1.991c-.44 0-.857.143-1.197.403-1.111-.771-2.567-1.231-4.115-1.348l.835-1.96 2.43.568a1.49 1.49 0 0 0 1.48 1.341c.823 0 1.493-.67 1.493-1.493 0-.824-.67-1.494-1.494-1.494-.522 0-.98.27-1.247.677l-2.84-.664a.498.498 0 0 0-.573.29L7.626 4.54c-1.672.058-3.265.529-4.468 1.35A1.993 1.993 0 0 0 0 7.502c0 .727.397 1.385 1.007 1.723a2.964 2.964 0 0 0-.011.268c0 2.745 3.126 4.978 6.97 4.978 3.841 0 6.969-2.233 6.969-4.978a3.54 3.54 0 0 0-.008-.231A1.972 1.972 0 0 0 16 7.503zm-2.559-4.978a.499.499 0 1 1-.001.997.499.499 0 0 1 .001-.997zm-8.96 6.472c0-.549.446-.996.995-.996a.997.997 0 1 1-.996.996zm5.783 3.302a3.92 3.92 0 0 1-4.598 0 .497.497 0 1 1 .584-.806 2.92 2.92 0 0 0 3.43 0 .498.498 0 1 1 .584.806zm.19-2.307A.996.996 0 1 1 10.455 8a.996.996 0 0 1 0 1.992z"/>
  </g>
</svg>