<svg width="16" height="16" fill="none" xmlns="http://www.w3.org/2000/svg">
  <g clip-path="url(#clip0)">
    <path d="M16 3.04c-.589.26-1.22.438-1.885.517a3.296 3.296 0 0 0 1.443-1.815 6.616 6.616 0 0 1-2.086.797A3.282 3.282 0 0 0 7.88 5.53a9.318 9.318 0 0 1-6.764-3.43 3.257 3.257 0 0 0-.444 1.65 3.28 3.28 0 0 0 1.46 2.732 3.283 3.283 0 0 1-1.487-.412v.041A3.286 3.286 0 0 0 3.276 9.33a3.324 3.324 0 0 1-.864.115 3.15 3.15 0 0 1-.618-.06 3.284 3.284 0 0 0 3.065 2.279 6.585 6.585 0 0 1-4.076 1.403c-.265 0-.526-.016-.783-.045a9.278 9.278 0 0 0 5.031 1.476c6.038 0 9.338-5 9.338-9.338l-.01-.425A6.555 6.555 0 0 0 16 3.04z" fill="#fff"/>
  </g>
  <defs>
    <clipPath id="clip0">
      <path fill="#fff" d="M0 0h16v16H0z"/>
    </clipPath>
  </defs>
</svg>